<svg xmlns="http://www.w3.org/2000/svg" xmlns:xlink="http://www.w3.org/1999/xlink" width="2480" zoomAndPan="magnify" viewBox="0 0 1860 299.999988" height="400" preserveAspectRatio="xMidYMid meet" version="1.0"><defs><g/></defs><g fill="#212121" fill-opacity="1"><g transform="translate(6.161893, 236.722368)"><g><path d="M 166.359375 0 L 125.0625 0 L 114.4375 -33.03125 L 50.734375 -33.03125 L 40.109375 0 L -1.1875 0 L 55.453125 -165.171875 L 109.71875 -165.171875 Z M 80.234375 -125.0625 L 61.359375 -66.078125 L 103.828125 -66.078125 L 84.953125 -125.0625 Z M 80.234375 -125.0625 "/></g></g></g><g fill="#212121" fill-opacity="1"><g transform="translate(171.34102, 236.722368)"><g/></g></g><g fill="#212121" fill-opacity="1"><g transform="translate(235.052962, 236.722368)"><g><path d="M 54.265625 0 L 16.515625 0 L 16.515625 -165.171875 L 54.265625 -165.171875 L 54.265625 -102.640625 L 117.984375 -102.640625 L 117.984375 -165.171875 L 155.734375 -165.171875 L 155.734375 0 L 117.984375 0 L 117.984375 -63.71875 L 54.265625 -63.71875 Z M 54.265625 0 "/></g></g></g><g fill="#212121" fill-opacity="1"><g transform="translate(407.311197, 236.722368)"><g><path d="M 89.671875 2.359375 C 74.878906 2.359375 61.347656 -1.296875 49.078125 -8.609375 C 36.804688 -15.921875 27.128906 -26.023438 20.046875 -38.921875 C 12.972656 -51.828125 9.4375 -66.382812 9.4375 -82.59375 C 9.4375 -98.789062 12.972656 -113.335938 20.046875 -126.234375 C 27.128906 -139.140625 36.804688 -149.25 49.078125 -156.5625 C 61.347656 -163.875 74.878906 -167.53125 89.671875 -167.53125 C 104.453125 -167.53125 117.976562 -163.875 130.25 -156.5625 C 142.519531 -149.25 152.191406 -139.140625 159.265625 -126.234375 C 166.347656 -113.335938 169.890625 -98.789062 169.890625 -82.59375 C 169.890625 -66.382812 166.347656 -51.828125 159.265625 -38.921875 C 152.191406 -26.023438 142.519531 -15.921875 130.25 -8.609375 C 117.976562 -1.296875 104.453125 2.359375 89.671875 2.359375 Z M 89.671875 -34.21875 C 97.535156 -34.21875 104.691406 -36.222656 111.140625 -40.234375 C 117.585938 -44.242188 122.695312 -49.90625 126.46875 -57.21875 C 130.25 -64.53125 132.140625 -72.988281 132.140625 -82.59375 C 132.140625 -92.1875 130.25 -100.640625 126.46875 -107.953125 C 122.695312 -115.265625 117.585938 -120.925781 111.140625 -124.9375 C 104.691406 -128.957031 97.535156 -130.96875 89.671875 -130.96875 C 81.804688 -130.96875 74.644531 -128.957031 68.1875 -124.9375 C 61.738281 -120.925781 56.625 -115.265625 52.84375 -107.953125 C 49.070312 -100.640625 47.1875 -92.1875 47.1875 -82.59375 C 47.1875 -72.988281 49.070312 -64.53125 52.84375 -57.21875 C 56.625 -49.90625 61.738281 -44.242188 68.1875 -40.234375 C 74.644531 -36.222656 81.804688 -34.21875 89.671875 -34.21875 Z M 89.671875 -34.21875 "/></g></g></g><g fill="#212121" fill-opacity="1"><g transform="translate(586.648513, 236.722368)"><g><path d="M 88.484375 0 L 50.734375 0 L 50.734375 -128.609375 L 4.71875 -128.609375 L 4.71875 -165.171875 L 134.5 -165.171875 L 134.5 -128.609375 L 88.484375 -128.609375 Z M 88.484375 0 "/></g></g></g><g fill="#212121" fill-opacity="1"><g transform="translate(725.870911, 236.722368)"><g><path d="M 88.484375 0 L 50.734375 0 L 50.734375 -128.609375 L 4.71875 -128.609375 L 4.71875 -165.171875 L 134.5 -165.171875 L 134.5 -128.609375 L 88.484375 -128.609375 Z M 88.484375 0 "/></g></g></g><g fill="#212121" fill-opacity="1"><g transform="translate(865.093309, 236.722368)"><g><path d="M 54.265625 0 L 16.515625 0 L 16.515625 -165.171875 L 54.265625 -165.171875 Z M 54.265625 0 "/></g></g></g><g fill="#212121" fill-opacity="1"><g transform="translate(935.884387, 236.722368)"><g><path d="M 129.78125 0 L 16.515625 0 L 16.515625 -165.171875 L 129.78125 -165.171875 L 129.78125 -130.96875 L 54.265625 -130.96875 L 54.265625 -99.109375 L 125.0625 -99.109375 L 125.0625 -66.078125 L 54.265625 -66.078125 L 54.265625 -34.21875 L 129.78125 -34.21875 Z M 129.78125 0 "/></g></g></g><g fill="#212121" fill-opacity="1"><g transform="translate(1077.466541, 236.722368)"><g/></g></g><g fill="#212121" fill-opacity="1"><g transform="translate(1141.178457, 236.722368)"><g><path d="M 16.515625 0 L 16.515625 -165.171875 L 77.875 -165.171875 C 92.65625 -165.171875 106.179688 -161.550781 118.453125 -154.3125 C 130.722656 -147.082031 140.394531 -137.175781 147.46875 -124.59375 C 154.550781 -112.007812 158.09375 -98.007812 158.09375 -82.59375 C 158.09375 -67.175781 154.550781 -53.171875 147.46875 -40.578125 C 140.394531 -27.992188 130.722656 -18.082031 118.453125 -10.84375 C 106.179688 -3.613281 92.65625 0 77.875 0 Z M 77.875 -36.578125 C 85.738281 -36.578125 92.894531 -38.539062 99.34375 -42.46875 C 105.789062 -46.40625 110.898438 -51.875 114.671875 -58.875 C 118.453125 -65.875 120.34375 -73.78125 120.34375 -82.59375 C 120.34375 -91.394531 118.453125 -99.296875 114.671875 -106.296875 C 110.898438 -113.296875 105.789062 -118.765625 99.34375 -122.703125 C 92.894531 -126.640625 85.738281 -128.609375 77.875 -128.609375 L 54.265625 -128.609375 L 54.265625 -36.578125 Z M 77.875 -36.578125 "/></g></g></g><g fill="#212121" fill-opacity="1"><g transform="translate(1308.717287, 236.722368)"><g><path d="M 84.953125 2.359375 C 70.953125 2.359375 58.679688 -0.507812 48.140625 -6.25 C 37.597656 -11.988281 29.492188 -20.164062 23.828125 -30.78125 C 18.171875 -41.40625 15.34375 -53.957031 15.34375 -68.4375 L 15.34375 -165.171875 L 53.09375 -165.171875 L 53.09375 -68.4375 C 53.09375 -61.820312 54.507812 -55.921875 57.34375 -50.734375 C 60.175781 -45.546875 64.03125 -41.492188 68.90625 -38.578125 C 73.78125 -35.671875 79.128906 -34.21875 84.953125 -34.21875 C 90.765625 -34.21875 96.109375 -35.671875 100.984375 -38.578125 C 105.867188 -41.492188 109.722656 -45.546875 112.546875 -50.734375 C 115.378906 -55.921875 116.796875 -61.820312 116.796875 -68.4375 L 116.796875 -165.171875 L 154.5625 -165.171875 L 154.5625 -68.4375 C 154.5625 -53.957031 151.726562 -41.40625 146.0625 -30.78125 C 140.394531 -20.164062 132.289062 -11.988281 121.75 -6.25 C 111.21875 -0.507812 98.953125 2.359375 84.953125 2.359375 Z M 84.953125 2.359375 "/></g></g></g><g fill="#212121" fill-opacity="1"><g transform="translate(1478.615873, 236.722368)"><g><path d="M 54.265625 0 L 16.515625 0 L 16.515625 -165.171875 L 74.328125 -165.171875 L 107.359375 -62.53125 L 112.078125 -62.53125 L 145.125 -165.171875 L 202.9375 -165.171875 L 202.9375 0 L 165.171875 0 L 165.171875 -101.46875 L 160.453125 -101.46875 L 127.421875 0 L 92.03125 0 L 59 -101.46875 L 54.265625 -101.46875 Z M 54.265625 0 "/></g></g></g><g fill="#212121" fill-opacity="1"><g transform="translate(1698.06816, 236.722368)"><g><path d="M 16.515625 0 L 16.515625 -165.171875 L 92.96875 -165.171875 C 103.664062 -165.171875 113.144531 -162.8125 121.40625 -158.09375 C 129.664062 -153.375 136.078125 -146.648438 140.640625 -137.921875 C 145.203125 -129.191406 147.484375 -119.085938 147.484375 -107.609375 C 147.484375 -95.960938 145.203125 -85.734375 140.640625 -76.921875 C 136.078125 -68.117188 129.664062 -61.351562 121.40625 -56.625 C 113.144531 -51.90625 103.664062 -49.546875 92.96875 -49.546875 L 54.265625 -49.546875 L 54.265625 0 Z M 90.84375 -86.125 C 96.351562 -86.125 100.875 -88.050781 104.40625 -91.90625 C 107.945312 -95.757812 109.71875 -100.910156 109.71875 -107.359375 C 109.71875 -113.816406 107.945312 -118.972656 104.40625 -122.828125 C 100.875 -126.679688 96.351562 -128.609375 90.84375 -128.609375 L 54.265625 -128.609375 L 54.265625 -86.125 Z M 90.84375 -86.125 "/></g></g></g></svg>