<svg xmlns="http://www.w3.org/2000/svg" xmlns:xlink="http://www.w3.org/1999/xlink" width="4480" zoomAndPan="magnify" viewBox="0 0 3360 299.999988" height="400" preserveAspectRatio="xMidYMid meet" version="1.0"><defs><clipPath id="6558a03eac"><path d="M 0 64 L 3360 64 L 3360 300 L 0 300 Z M 0 64 " clip-rule="nonzero"/></clipPath><clipPath id="7f93ec66e8"><path d="M 3402.308594 68.484375 L 3388.683594 759.097656 L -64.394531 690.960938 L -50.769531 0.34375 Z M 3402.308594 68.484375 " clip-rule="nonzero"/></clipPath><clipPath id="4d09ca4d5d"><path d="M 3402.308594 68.484375 L 3388.683594 759.097656 L -64.394531 690.960938 L -50.769531 0.34375 Z M 3402.308594 68.484375 " clip-rule="nonzero"/></clipPath><clipPath id="4a54abf4ee"><path d="M 0 192 L 1578 192 L 1578 300 L 0 300 Z M 0 192 " clip-rule="nonzero"/></clipPath><clipPath id="67ac1c6610"><path d="M 3402.308594 68.484375 L 3388.683594 759.097656 L -64.394531 690.960938 L -50.769531 0.34375 Z M 3402.308594 68.484375 " clip-rule="nonzero"/></clipPath><clipPath id="d5abed60f7"><path d="M 3402.308594 68.484375 L 3388.683594 759.097656 L -64.394531 690.960938 L -50.769531 0.34375 Z M 3402.308594 68.484375 " clip-rule="nonzero"/></clipPath><clipPath id="5632d572a5"><path d="M 1583.507812 221.703125 L 1573.609375 723.210938 L -64.058594 690.894531 L -54.164062 189.386719 Z M 1583.507812 221.703125 " clip-rule="nonzero"/></clipPath><clipPath id="f7173ff1a6"><path d="M 158.105469 197.210938 C 362.992188 211.957031 417.582031 210.605469 469.03125 211.621094 C 518.070312 212.589844 563.003906 211.0625 612.296875 215.492188 C 665.070312 219.644531 729.492188 227.824219 776.242188 239.109375 C 813.039062 247.769531 844.082031 267.378906 871.976562 271.382812 C 893.339844 274.574219 905.871094 269.640625 929.34375 269.761719 C 965.964844 270.144531 1022.871094 274.359375 1071.523438 276.707031 C 1122.585938 279.097656 1178.171875 281.238281 1229.574219 283.621094 C 1278.929688 285.980469 1346.503906 292.152344 1374.144531 291.652344 C 1385.210938 291.53125 1397.335938 289.703125 1397.335938 289.703125 C 1397.679688 289.707031 1410.789062 289.964844 1417.34375 290.4375 C 1424.25 290.574219 1437.371094 291.175781 1437.710938 291.179688 C 1437.710938 291.179688 1450.414062 294.886719 1456.941406 296.742188 C 1463.472656 298.597656 1476.171875 302.300781 1476.171875 302.300781 C 1476.523438 302.667969 1487.785156 309.097656 1493.597656 312.667969 C 1499.398438 315.894531 1511.019531 322.347656 1511.011719 322.6875 C 1511.351562 322.695312 1520.851562 331.859375 1525.582031 336.449219 C 1530.324219 341.367188 1540.171875 350.195312 1540.164062 350.554688 C 1540.5 350.902344 1547.191406 361.738281 1550.871094 367.675781 C 1554.574219 373.289062 1561.605469 384.476562 1561.605469 384.476562 C 1561.9375 384.824219 1565.828125 397.332031 1568.132812 403.601562 C 1570.074219 410.207031 1574.328125 422.378906 1574.324219 422.722656 C 1574.316406 423.0625 1575.425781 436.21875 1575.996094 442.796875 C 1576.542969 449.714844 1577.667969 462.851562 1577.667969 462.851562 C 1577.664062 463.191406 1575.335938 476.28125 1574.503906 482.828125 C 1573.351562 489.371094 1571.363281 502.449219 1571.015625 502.785156 C 1571.007812 503.144531 1565.933594 515.132812 1563.382812 521.289062 C 1560.507812 527.457031 1555.433594 539.445312 1555.425781 539.785156 C 1555.078125 540.121094 1547.261719 550.671875 1543.363281 555.777344 C 1539.117188 561.234375 1531.300781 571.78125 1530.953125 572.117188 C 1530.953125 572.117188 1520.765625 580.550781 1515.503906 584.585938 C 1510.238281 588.980469 1500.066406 597.414062 1500.066406 597.414062 C 1500.066406 597.414062 1500.066406 597.414062 1499.707031 597.40625 C 1499.707031 597.40625 1487.867188 603.039062 1481.585938 606.027344 C 1475.660156 609.019531 1463.800781 614.652344 1463.460938 614.644531 C 1463.101562 614.636719 1450.269531 617.496094 1443.679688 618.753906 C 1437.089844 620.007812 1423.917969 622.859375 1423.917969 622.859375 C 1423.917969 622.859375 1424.265625 622.507812 1424.265625 622.507812 C 1424.265625 622.507812 1424.265625 622.507812 1423.917969 622.859375 C 1422.183594 623.167969 1367.617188 639.703125 1362.75 642.015625 C 1362.042969 642.363281 1362.042969 642.363281 1361.695312 642.699219 C 1361.011719 642.683594 1360.308594 642.671875 1359.277344 642.992188 C 1356.496094 643.621094 1349.527344 646.597656 1344.328125 647.535156 C 1338.4375 648.804688 1331.882812 648.316406 1325.988281 648.902344 C 1320.105469 649.8125 1313.152344 652.101562 1308.308594 652.347656 C 1304.511719 652.273438 1302.125 651.183594 1299.019531 650.78125 C 1296.25 650.726562 1293.472656 652.054688 1290.027344 651.644531 C 1285.195312 651.210938 1278.34375 648.304688 1272.484375 647.144531 C 1266.644531 646.003906 1259.394531 645.859375 1254.585938 644.378906 C 1251.152344 643.269531 1249.121094 641.503906 1246.371094 640.421875 C 1243.640625 639.324219 1240.871094 639.269531 1237.445312 637.816406 C 1232.984375 636.003906 1227.558594 631.074219 1222.433594 628.203125 C 1217.316406 624.988281 1209.773438 622.429688 1206.367188 619.933594 C 1203.976562 618.160156 1204.375 616.097656 1201.292969 614.652344 C 1190.679688 609.964844 1139.492188 613.089844 1117.738281 612.320312 C 1103.933594 611.707031 1098.121094 609.164062 1083.585938 610.964844 C 1055.527344 614.207031 1001.730469 645.617188 963.035156 645.535156 C 927.46875 645.515625 889.960938 620.957031 860.003906 615.527344 C 836.953125 611.277344 818.96875 611.949219 798.96875 610.871094 C 779.28125 610.140625 741.648438 610.082031 741.648438 610.082031 C 740.949219 610.066406 728.214844 608.089844 721.320312 607.269531 C 714.777344 606.097656 701.679688 604.453125 701.335938 604.445312 C 701.34375 604.105469 689.007812 599.363281 682.832031 596.832031 C 676.675781 594.296875 664.34375 589.214844 663.984375 589.207031 C 663.644531 589.203125 653.09375 581.382812 647.648438 577.480469 C 642.203125 573.578125 631.292969 565.769531 631.296875 565.410156 C 630.957031 565.402344 619.480469 551.722656 618.121094 550.308594 C 617.789062 549.960938 618.128906 549.96875 617.792969 549.601562 C 614.039062 547.457031 561.648438 542.285156 529.558594 540.269531 C 490.570312 537.773438 414.375 530.746094 401.136719 537.050781 C 398 538.355469 398.992188 540.101562 396.53125 542.480469 C 391.257812 547.21875 368.496094 562.996094 368.496094 562.996094 C 368.496094 562.996094 327.691406 583.257812 304.546875 600.070312 C 271.621094 623.941406 232.136719 663.925781 194.839844 698.773438 C 155.054688 736.667969 119.53125 804.707031 73.296875 819.335938 C 31.234375 833.007812 -30.007812 820.410156 -67.195312 796.867188 C -105.730469 772.289062 -137.816406 718.117188 -152.121094 672.570312 C -166.421875 627.042969 -154.78125 579.617188 -152.636719 523.695312 C -149.820312 451.214844 -167.101562 328.59375 -131.832031 274.386719 C -104.035156 231.398438 -44.246094 211.855469 4.023438 198.992188 C 52.292969 186.125 158.105469 197.210938 158.105469 197.210938 " clip-rule="nonzero"/></clipPath><clipPath id="240aaebe8c"><path d="M 870 265 L 3035 265 L 3035 300 L 870 300 Z M 870 265 " clip-rule="nonzero"/></clipPath><clipPath id="ed986784de"><path d="M 3402.308594 68.484375 L 3388.683594 759.097656 L -64.394531 690.960938 L -50.769531 0.34375 Z M 3402.308594 68.484375 " clip-rule="nonzero"/></clipPath><clipPath id="c5d09dca7c"><path d="M 3402.308594 68.484375 L 3388.683594 759.097656 L -64.394531 690.960938 L -50.769531 0.34375 Z M 3402.308594 68.484375 " clip-rule="nonzero"/></clipPath><clipPath id="e89de33ec9"><path d="M 3038.539062 284.273438 L 3030.414062 696.027344 L 866.976562 653.335938 L 875.101562 241.582031 Z M 3038.539062 284.273438 " clip-rule="nonzero"/></clipPath><clipPath id="bad42b6d11"><path d="M 999.65625 365.09375 C 1162.34375 347.578125 1256.328125 346.320312 1322.046875 341.753906 C 1376.34375 337.984375 1411.59375 336.613281 1469.785156 328.785156 C 1554.636719 317.324219 1658.964844 281.390625 1781.105469 271.027344 C 1952.707031 256.800781 2211.121094 271.902344 2405.0625 280.570312 C 2574.847656 288.074219 2804.222656 304.332031 2882.078125 315.546875 C 2907.910156 319.167969 2916.871094 320.027344 2932.632812 326.222656 C 2948.738281 332.402344 2964.097656 341.683594 2977.355469 352.648438 C 2990.273438 363.625 3002.09375 377.316406 3011.128906 391.671875 C 3019.816406 406.34375 3026.753906 423.066406 3030.5625 439.710938 C 3034.378906 456.03125 3035.402344 474.34375 3033.683594 491.242188 C 3031.984375 508.136719 3027.140625 525.652344 3020.269531 541.058594 C 3013.058594 556.460938 3003.101562 571.464844 2991.445312 584.007812 C 2979.792969 596.570312 2965.417969 607.671875 2950.757812 615.675781 C 2935.742188 623.675781 2918.355469 629.539062 2901.730469 632.320312 C 2885.082031 635.449219 2866.769531 635.429688 2850.253906 632.691406 C 2833.375 630.289062 2816.21875 624.429688 2800.824219 616.855469 C 2785.78125 608.96875 2771.496094 597.980469 2759.648438 585.660156 C 2747.804688 573.335938 2737.390625 558.613281 2730.425781 543.292969 C 2723.136719 527.945312 2717.960938 510.230469 2716.222656 493.609375 C 2714.128906 476.640625 2714.832031 458.359375 2718.609375 441.847656 C 2722.046875 425.328125 2728.613281 408.1875 2737.1875 393.855469 C 2746.113281 379.171875 2757.433594 365.238281 2770.425781 354.105469 C 2783.4375 342.957031 2798.824219 333.582031 2814.496094 326.984375 C 2830.164062 320.746094 2847.855469 316.597656 2864.804688 315.546875 C 2882.097656 314.503906 2900.011719 316.582031 2916.515625 320.722656 C 2932.65625 325.179688 2949.433594 332.757812 2963.402344 342.371094 C 2977.71875 351.632812 2990.949219 363.980469 3001.042969 377.65625 C 3011.484375 390.976562 3020.160156 407.03125 3025.710938 423.046875 C 3031.257812 439.039062 3034.359375 457.054688 3034.382812 473.984375 C 3034.734375 490.917969 3031.609375 508.8125 3026.46875 524.953125 C 3021.3125 541.082031 3012.703125 557.136719 3002.753906 570.757812 C 2992.484375 584.371094 2979.445312 596.90625 2965.4375 606.648438 C 2951.429688 616.375 2935.050781 624.003906 2918.71875 628.519531 C 2902.394531 633.378906 2892.359375 634.207031 2867.144531 634.75 C 2798.382812 635.804688 2625.792969 612.71875 2479.496094 604.652344 C 2288.339844 594.3125 1998.953125 573.402344 1818.8125 582.980469 C 1693.292969 589.480469 1610.214844 616.859375 1500.164062 627.117188 C 1383.203125 637.601562 1220.550781 636.117188 1136.136719 642.726562 C 1091.167969 645.996094 1058.226562 652.59375 1032.988281 654.164062 C 1018.117188 654.914062 1009.128906 655.421875 997.753906 653.8125 C 986.398438 652.222656 974.703125 649.5625 963.742188 645.207031 C 953.101562 641.203125 942.167969 635.445312 932.984375 628.714844 C 923.4375 621.960938 914.273438 614.171875 906.835938 605.386719 C 899.074219 596.601562 892.359375 586.808594 887.027344 576.339844 C 881.703125 566.214844 877.449219 554.726562 874.898438 543.628906 C 872.011719 532.164062 870.519531 520.40625 870.75 508.664062 C 870.980469 496.921875 872.253906 485.199219 875.230469 473.871094 C 877.882812 462.515625 882.238281 451.558594 887.964844 441.308594 C 893.347656 431.050781 900.109375 421.164062 907.890625 412.339844 C 915.652344 403.859375 924.789062 395.746094 934.25 389.367188 C 944.039062 382.992188 954.511719 377.335938 965.292969 373.390625 C 976.441406 369.132812 999.65625 365.09375 999.65625 365.09375 " clip-rule="nonzero"/></clipPath><clipPath id="8272dadb92"><path d="M 2749 262 L 3360 262 L 3360 300 L 2749 300 Z M 2749 262 " clip-rule="nonzero"/></clipPath><clipPath id="c22fa9dec2"><path d="M 3402.308594 68.484375 L 3388.683594 759.097656 L -64.394531 690.960938 L -50.769531 0.34375 Z M 3402.308594 68.484375 " clip-rule="nonzero"/></clipPath><clipPath id="aebb9d2603"><path d="M 3402.308594 68.484375 L 3388.683594 759.097656 L -64.394531 690.960938 L -50.769531 0.34375 Z M 3402.308594 68.484375 " clip-rule="nonzero"/></clipPath><clipPath id="ef60e9b621"><path d="M 3398.476562 261.835938 L 3391.210938 630.125 L 2746.699219 617.40625 L 2753.96875 249.117188 Z M 3398.476562 261.835938 " clip-rule="nonzero"/></clipPath><clipPath id="e9c6e8eef8"><path d="M 2863.039062 334.851562 C 3047.542969 296.699219 3101.578125 288.789062 3154.898438 282.59375 C 3208.90625 276.046875 3269.832031 270 3318.59375 266.824219 C 3358.027344 264.148438 3397.449219 261.132812 3426.085938 263.0625 C 3445.0625 264.140625 3458.160156 265.78125 3472.902344 270.894531 C 3488.003906 276.03125 3502.707031 283.933594 3514.949219 293.492188 C 3527.539062 302.71875 3539.042969 315.035156 3547.765625 327.996094 C 3556.488281 340.941406 3563.453125 356.28125 3567.636719 371.207031 C 3571.832031 386.488281 3573.574219 403.109375 3572.582031 418.636719 C 3571.574219 434.160156 3568.136719 450.660156 3562.332031 465.0625 C 3556.515625 479.789062 3547.597656 494.132812 3537.6875 506.023438 C 3527.449219 517.914062 3514.445312 528.703125 3501.171875 536.734375 C 3487.539062 544.757812 3472.222656 550.660156 3456.949219 554.175781 C 3441.34375 557.320312 3424.753906 558.359375 3409.246094 556.6875 C 3393.734375 554.996094 3377.585938 550.179688 3363.554688 543.695312 C 3349.183594 537.1875 3335.558594 527.601562 3324.019531 517.011719 C 3312.828125 506.066406 3302.730469 492.753906 3295.414062 478.792969 C 3288.078125 464.832031 3282.863281 449.1875 3280.417969 433.59375 C 3277.609375 418.335938 3277.941406 401.414062 3280.316406 385.917969 C 3283.035156 370.429688 3288.527344 354.652344 3295.703125 340.976562 C 3303.25 326.96875 3313.171875 313.691406 3324.78125 303.214844 C 3336.042969 292.375 3350.042969 282.988281 3364.332031 276.363281 C 3378.273438 270.070312 3394.609375 265.554688 3410.1875 263.792969 C 3425.757812 262.375 3442.3125 263.042969 3457.789062 266.460938 C 3472.921875 269.871094 3488.335938 276.382812 3502 284.261719 C 3515.3125 292.457031 3527.867188 303.425781 3537.996094 315.355469 C 3548.121094 327.304688 3556.832031 341.632812 3562.410156 356.261719 C 3568.34375 370.878906 3571.820312 387.191406 3572.539062 402.75 C 3573.273438 418.304688 3571.554688 435.183594 3567.46875 449.960938 C 3563.03125 465.078125 3556.160156 480.484375 3547.269531 493.421875 C 3538.378906 506.378906 3526.742188 518.238281 3514.464844 527.675781 C 3501.847656 537.089844 3487.191406 545.09375 3472.234375 549.976562 C 3457.277344 554.863281 3445.171875 555.667969 3425.117188 557.339844 C 3390.515625 560.453125 3335.019531 554.863281 3282.089844 558.65625 C 3215.695312 562.871094 3123.210938 575.5625 3058.40625 586.714844 C 3007.808594 595.394531 2954.300781 611.25 2924.140625 616.195312 C 2908.917969 618.304688 2900.941406 619.535156 2889.539062 619.308594 C 2878.15625 619.085938 2866.449219 617.125 2855.101562 614.132812 C 2844.113281 611.164062 2833.160156 606.449219 2823.246094 601.070312 C 2812.996094 595.347656 2803.457031 588.25 2795.320312 580.480469 C 2786.835938 572.722656 2779.082031 563.589844 2773.050781 553.792969 C 2766.671875 544.347656 2761.363281 533.539062 2757.78125 522.746094 C 2753.855469 511.964844 2751.316406 500.167969 2750.15625 488.757812 C 2749.355469 477.335938 2749.589844 465.59375 2751.179688 454.238281 C 2752.789062 442.863281 2756.132812 431.183594 2760.480469 420.5625 C 2764.84375 409.945312 2770.570312 399.695312 2777.316406 390.511719 C 2784.066406 381.308594 2792.171875 372.492188 2801.296875 365.078125 C 2810.078125 357.640625 2819.882812 351.269531 2830.34375 346.292969 C 2840.46875 340.972656 2863.039062 334.851562 2863.039062 334.851562 " clip-rule="nonzero"/></clipPath><clipPath id="0fd1eeaab3"><path d="M 2180 184 L 3360 184 L 3360 300 L 2180 300 Z M 2180 184 " clip-rule="nonzero"/></clipPath><clipPath id="3b2b04dc41"><path d="M 3402.308594 68.484375 L 3388.683594 759.097656 L -64.394531 690.960938 L -50.769531 0.34375 Z M 3402.308594 68.484375 " clip-rule="nonzero"/></clipPath><clipPath id="5dca8034f8"><path d="M 3402.308594 68.484375 L 3388.683594 759.097656 L -64.394531 690.960938 L -50.769531 0.34375 Z M 3402.308594 68.484375 " clip-rule="nonzero"/></clipPath><clipPath id="38c4e693aa"><path d="M 3399.929688 188.175781 L 3392.691406 554.9375 L 2176.648438 530.941406 L 2183.886719 164.179688 Z M 3399.929688 188.175781 " clip-rule="nonzero"/></clipPath><clipPath id="70a78fc768"><path d="M 2432.566406 532.234375 C 2309.832031 502.519531 2277.546875 493.933594 2258.042969 484.226562 C 2245.390625 478.097656 2237.90625 471.742188 2229.082031 463.957031 C 2220.257812 456.191406 2212.144531 447.054688 2205.773438 437.25 C 2199.050781 427.800781 2193.398438 416.984375 2189.480469 405.84375 C 2185.195312 395.054688 2182.664062 382.914062 2181.164062 371.480469 C 2179.667969 359.71875 2179.90625 347.636719 2181.523438 335.921875 C 2182.796875 324.199219 2185.78125 312.507812 2190.152344 301.550781 C 2194.167969 290.566406 2199.898438 279.972656 2206.652344 270.445312 C 2213.414062 260.558594 2221.519531 251.742188 2230.308594 243.964844 C 2239.097656 236.1875 2249.25 229.480469 2259.726562 223.820312 C 2270.191406 218.503906 2281.683594 214.234375 2293.121094 211.707031 C 2304.242188 208.8125 2316.359375 207.328125 2328.101562 207.558594 C 2339.832031 207.449219 2345.640625 211.359375 2363.238281 212.046875 C 2416.398438 213.78125 2578.015625 197.628906 2683.113281 193.136719 C 2785.4375 188.609375 2886.371094 185.417969 2986.554688 184.625 C 3084.316406 183.441406 3207.625 184.148438 3277.683594 186.574219 C 3317.382812 187.699219 3345.046875 186.175781 3370.839844 191.867188 C 3389.753906 196.035156 3404.484375 202.550781 3419.152344 211.476562 C 3434.175781 220.40625 3448.097656 232.410156 3459.246094 245.421875 C 3470.03125 258.75 3479.738281 274.484375 3485.988281 290.511719 C 3492.242188 306.519531 3496.023438 324.546875 3497.066406 341.839844 C 3497.769531 359.121094 3495.679688 377.394531 3490.859375 393.867188 C 3486.386719 410.710938 3478.453125 427.140625 3468.851562 441.449219 C 3458.890625 455.769531 3446.199219 468.976562 3432.519531 479.429688 C 3418.847656 489.523438 3402.449219 498.175781 3386.113281 503.71875 C 3369.765625 508.917969 3351.40625 512.011719 3334.136719 512.027344 C 3317.214844 511.695312 3298.964844 508.5625 3282.503906 503.058594 C 3266.367188 497.558594 3249.96875 488.941406 3236.363281 478.3125 C 3222.753906 467.679688 3210.226562 454.320312 3200.492188 439.949219 C 3190.765625 425.941406 3183.144531 409.222656 3178.632812 392.546875 C 3174.121094 375.890625 3172.414062 357.542969 3173.457031 340.292969 C 3174.480469 323.042969 3178.289062 305.164062 3184.832031 289.046875 C 3191.347656 273.289062 3201 257.253906 3211.960938 244.339844 C 3223.269531 231.085938 3237.316406 219.273438 3252.347656 210.59375 C 3267.019531 201.90625 3284.085938 194.992188 3301.082031 191.515625 C 3317.726562 187.707031 3336.394531 187.03125 3353.289062 188.75 C 3370.519531 190.816406 3388.378906 195.667969 3403.769531 203.21875 C 3419.53125 210.4375 3434.511719 220.753906 3447.066406 232.75 C 3459.601562 244.726562 3470.71875 259.464844 3478.707031 274.824219 C 3486.6875 289.824219 3492.5625 307.550781 3494.996094 324.527344 C 3497.757812 341.511719 3497.753906 359.824219 3494.988281 377.039062 C 3491.902344 393.890625 3486.015625 411.402344 3477.785156 426.425781 C 3469.53125 441.804688 3458.542969 456.105469 3445.878906 467.945312 C 3433.214844 479.785156 3418.148438 490.191406 3402.46875 497.132812 C 3386.78125 504.433594 3377.390625 508.042969 3351.769531 510.992188 C 3277.332031 519.886719 3014.894531 498.820312 2905.425781 497.003906 C 2842.246094 496.097656 2805.277344 496.050781 2755.171875 497.148438 C 2705.410156 498.238281 2664.917969 502.617188 2605.835938 503.523438 C 2520.496094 504.25 2342.210938 507.296875 2291.296875 497.316406 C 2274.097656 493.863281 2268.632812 489.960938 2258.042969 484.226562 C 2247.785156 478.84375 2237.898438 472.082031 2229.082031 463.957031 C 2220.257812 456.191406 2212.484375 447.0625 2205.773438 437.25 C 2199.050781 427.800781 2193.398438 416.984375 2189.480469 405.84375 C 2185.195312 395.054688 2182.664062 382.914062 2181.164062 371.480469 C 2179.667969 359.71875 2179.90625 347.636719 2181.523438 335.921875 C 2182.796875 324.199219 2185.78125 312.507812 2190.152344 301.550781 C 2194.167969 290.566406 2199.898438 279.972656 2206.652344 270.445312 C 2213.414062 260.558594 2221.519531 251.742188 2230.308594 243.964844 C 2239.097656 236.1875 2249.25 229.480469 2259.726562 223.820312 C 2270.191406 218.503906 2281.683594 214.234375 2293.121094 211.707031 C 2304.242188 208.8125 2316.359375 207.328125 2328.101562 207.558594 C 2339.832031 207.449219 2347.421875 208.621094 2363.238281 212.046875 C 2399.019531 219.320312 2501.0625 246.535156 2533.570312 262.039062 C 2547.960938 268.546875 2553.71875 273.839844 2562.542969 281.605469 C 2571.027344 289.367188 2579.144531 298.160156 2585.867188 307.632812 C 2592.589844 317.082031 2598.238281 327.898438 2602.183594 338.699219 C 2606.449219 349.484375 2609.328125 361.289062 2610.828125 372.707031 C 2612.332031 384.144531 2612.433594 396.234375 2611.183594 407.597656 C 2609.910156 419.320312 2606.925781 431.007812 2602.902344 441.632812 C 2598.890625 452.617188 2593.160156 463.207031 2586.746094 472.742188 C 2580.34375 482.636719 2572.21875 491.453125 2563.773438 499.238281 C 2554.984375 507.015625 2545.191406 513.730469 2535.058594 519.394531 C 2524.589844 524.710938 2513.460938 528.988281 2502.339844 531.882812 C 2490.894531 534.75 2479.117188 536.246094 2467.367188 536.375 C 2455.960938 536.492188 2432.566406 532.234375 2432.566406 532.234375 " clip-rule="nonzero"/></clipPath></defs><g clip-path="url(#6558a03eac)"><g clip-path="url(#7f93ec66e8)"><g clip-path="url(#4d09ca4d5d)"><path fill="#f5f3ef" d="M 3258.074219 121.855469 C 3246.21875 128.257812 3242.761719 129.269531 3234.71875 121.285156 C 3226.316406 112.988281 3227.007812 99.851562 3219.523438 92.722656 C 3207.605469 94.953125 3191.894531 101.660156 3182.535156 109.101562 C 3172.882812 116.792969 3171.332031 125.199219 3157.332031 125.371094 C 3149.507812 125.453125 3141.523438 126.140625 3134.46875 122.582031 C 3125.992188 118.332031 3120.9375 108.121094 3110.195312 110.105469 C 3103.101562 111.367188 3097.5625 118.542969 3089.359375 120.269531 C 3073.679688 123.542969 3057.96875 122.996094 3042.085938 122.792969 C 3015.074219 122.386719 3031.527344 91.855469 3012.257812 80 C 3006.527344 85.050781 3000.171875 88.089844 2993.484375 91.574219 C 2956.550781 110.671875 2935.648438 132.347656 2898.363281 122.042969 C 2872.203125 114.816406 2822.613281 121.628906 2806.683594 117.644531 C 2788.65625 113.132812 2802.175781 100.839844 2775.054688 94.101562 C 2761.230469 90.695312 2745.148438 95.34375 2730.859375 92.867188 C 2722.132812 63.679688 2695.171875 86.117188 2686.734375 89.875 C 2671.832031 96.523438 2656.183594 101.035156 2640.765625 106.398438 C 2617.816406 114.421875 2586.953125 125.773438 2562.242188 115.480469 C 2548.289062 109.628906 2548.363281 92.234375 2533.859375 88.835938 C 2529.917969 87.914062 2519.460938 88.230469 2515.648438 89.863281 C 2508.140625 93.023438 2513.792969 101.96875 2486.984375 103.058594 C 2449.011719 104.648438 2456.609375 94.363281 2446.109375 87.609375 C 2443.742188 99.921875 2436.988281 118.535156 2427.605469 126.355469 C 2419.15625 133.363281 2410.019531 133.183594 2399.445312 133.011719 C 2379.304688 132.742188 2356.96875 131.398438 2339.765625 119.65625 C 2325.515625 109.894531 2318.277344 91.832031 2300.761719 86.199219 C 2290.570312 82.921875 2293.097656 86.191406 2285.898438 89.015625 C 2252.066406 102.34375 2254.566406 117.832031 2235.371094 116.101562 C 2216.136719 114.375 2219.234375 94.070312 2201.210938 89.46875 C 2185.101562 85.335938 2177.972656 100.128906 2163.851562 104.582031 C 2148.03125 109.558594 2140.679688 101.082031 2129.203125 92.90625 C 2117.917969 84.820312 2107.921875 89.175781 2096.039062 85.863281 C 2088.0625 83.621094 2084.554688 75.328125 2076.976562 72.875 C 2068.003906 69.964844 2062.972656 76.882812 2056.546875 82.601562 C 1985.476562 145.980469 1984.839844 104.285156 1961.199219 71.671875 C 1943.859375 47.746094 1927.777344 86.898438 1885.703125 103.066406 C 1871.074219 108.714844 1842.050781 115.339844 1829.699219 103.277344 C 1823.941406 97.710938 1823.328125 87.804688 1816.808594 82.820312 C 1801.195312 70.835938 1780.785156 96.859375 1756.09375 107.363281 C 1734.757812 116.425781 1714.226562 125.824219 1693.839844 136.933594 C 1694.804688 136.378906 1671.976562 150.859375 1665.988281 149.914062 C 1662.597656 149.324219 1658.929688 143.765625 1656.5 141.902344 C 1645.746094 133.59375 1644.441406 135.816406 1608.390625 147.660156 C 1599.574219 150.546875 1561.894531 163.601562 1548.734375 156.792969 C 1544.976562 154.867188 1543.085938 149.46875 1539.082031 149.226562 C 1534.464844 148.902344 1527.714844 155.335938 1523.183594 158.125 C 1512.601562 164.660156 1502.320312 169.585938 1490.140625 172.476562 C 1486.886719 173.21875 1475.460938 176.878906 1471.878906 175.28125 C 1466.722656 172.984375 1469.761719 171.335938 1466.222656 167.453125 C 1461.976562 162.816406 1462.128906 161.507812 1455.011719 160.179688 C 1433.363281 156.046875 1404.496094 179.457031 1388.648438 145.683594 C 1377.324219 145.082031 1364.113281 152.644531 1352.59375 153.984375 C 1346.609375 154.640625 1326.164062 155.980469 1320.363281 152.628906 C 1308.015625 145.601562 1312.195312 130.84375 1294.40625 135.117188 C 1278.773438 138.855469 1265.84375 153.207031 1250.597656 156.304688 C 1226.792969 161.144531 1210.183594 141.1875 1176.265625 154.40625 C 1156.214844 162.25 1130 177.851562 1107.804688 172.214844 C 1098.28125 169.796875 1091.140625 158.863281 1083.230469 152.984375 C 1060.589844 136.167969 1059.957031 144.59375 1051.265625 150.089844 C 1007.488281 177.953125 1009.769531 119.75 988.964844 122.753906 C 984.402344 123.402344 983.046875 129.152344 980.519531 132.339844 C 974.835938 139.53125 966.769531 145.523438 957.429688 146.472656 C 920.800781 150.285156 925.28125 122.8125 911.511719 116.800781 C 901.003906 112.277344 885.070312 121.171875 874.144531 115.957031 C 865.234375 111.714844 861 96.449219 855.359375 88.90625 C 816.835938 91.078125 782.488281 114.902344 743.90625 118.316406 C 712.4375 121.132812 710.167969 95.757812 686.042969 106.847656 C 674.570312 112.089844 663.269531 124.117188 652.03125 112.796875 C 644.480469 105.21875 645.03125 91.105469 633.75 88.3125 C 627.609375 86.789062 617.363281 93.726562 611.886719 95.976562 C 594.4375 103.1875 581.558594 109.445312 566.195312 120.3125 C 552.75 129.835938 545.078125 133.082031 535.761719 119.210938 C 530.484375 111.371094 529.511719 105.917969 528.648438 96.707031 C 515.539062 92.960938 498.292969 95.300781 484.589844 95.117188 C 474.984375 95 468.824219 92.722656 460.257812 91.003906 C 452.085938 89.3125 449.636719 92.304688 442.195312 95.46875 C 431.328125 100.113281 419.9375 103.019531 409.035156 107.695312 C 402.628906 110.429688 393.164062 115.101562 386.054688 110.824219 C 373.789062 103.367188 377.023438 91.574219 358.464844 100.367188 C 346.789062 105.890625 344.148438 110.15625 330.953125 110.707031 C 326.152344 110.449219 321.40625 110.390625 316.617188 110.496094 C 314.269531 110.070312 312.605469 108.796875 311.640625 106.582031 C 296.144531 103.203125 277.949219 104.535156 261.847656 104.558594 C 243.535156 104.59375 243.460938 91.042969 230.390625 80.460938 C 211.230469 65.007812 179.386719 92.566406 161.410156 99.140625 C 143.542969 105.695312 134.226562 103.785156 123.144531 89.171875 C 111.484375 73.761719 103.34375 77.882812 89.953125 87.242188 C 73.300781 98.804688 72.835938 96.78125 60.035156 84.511719 C 44.378906 69.433594 27.449219 83.9375 10.175781 91.496094 C -2.109375 96.882812 -12.261719 103.539062 -24.449219 95.671875 C -34.679688 89.101562 -40.019531 74.207031 -51.78125 68.542969 L -55.042969 233.875 C -44.210938 237.382812 -35.644531 243.703125 -23.5625 252.199219 C -18.238281 255.9375 -0.585938 272.082031 10.105469 270.945312 C 19.027344 270.003906 27.9375 259.820312 35.492188 256.226562 C 45.96875 251.25 59.4375 251.605469 70.683594 252.367188 C 82.433594 253.140625 88.945312 255.121094 97.691406 263.066406 C 103.59375 268.4375 111.878906 284.484375 120.425781 286.992188 C 127.4375 289.035156 135.109375 283.160156 140.714844 280.808594 C 158.332031 273.367188 177.347656 270.539062 195.988281 274.953125 C 198.988281 295.214844 211.539062 301.941406 227.804688 291.828125 C 237.164062 284.222656 246.769531 277 256.726562 270.179688 C 266.320312 262.632812 276.734375 256.363281 287.933594 251.367188 C 305.589844 253.566406 310.234375 279.960938 313.007812 293.492188 C 321.222656 281.976562 351.375 280.917969 364.128906 278.363281 C 383.355469 274.925781 402.503906 270.96875 421.515625 266.453125 C 464.292969 253.894531 461.367188 265.476562 472.4375 265.027344 C 477.617188 262.46875 482.898438 260.160156 488.332031 258.179688 C 548.136719 246.101562 567.945312 238.667969 611.097656 241.75 C 613.742188 246.191406 616.390625 250.652344 619 255.09375 C 624.558594 265.152344 625.175781 273.0625 635.75 274.1875 C 652.015625 275.910156 670.375 249.902344 687.484375 247.144531 C 735.941406 239.285156 719.972656 279.933594 773.671875 276.421875 C 796.222656 274.980469 828.976562 247.902344 843.765625 271.511719 C 857.074219 292.75 863.050781 314.382812 881.949219 331.324219 C 909.019531 319.75 930.414062 302.128906 954.292969 285.367188 C 966.878906 298.460938 977.804688 312.867188 990.351562 326.015625 C 1005.535156 319.730469 1021.0625 315.070312 1037.332031 312.910156 C 1041.882812 320.285156 1044.914062 334.433594 1053.914062 337.722656 C 1060.828125 337.445312 1073.433594 336.757812 1101.441406 337.921875 C 1121.863281 338.59375 1141.40625 336.550781 1161.167969 331.542969 C 1180.546875 326.621094 1166.367188 327.726562 1174.929688 333.292969 C 1182.015625 337.910156 1182.246094 349.085938 1193.453125 348.300781 C 1218.261719 333.679688 1258.953125 304.617188 1270.257812 306.839844 C 1288.542969 319.34375 1286.410156 328.007812 1302.773438 332.953125 C 1312.675781 328.957031 1310.457031 318.355469 1315.996094 311.125 C 1361.277344 335.65625 1358.15625 358.925781 1381.910156 362.203125 C 1391.453125 363.503906 1408.46875 358.335938 1416.609375 356.824219 C 1440.699219 352.226562 1464.574219 346.761719 1489.042969 344.761719 C 1485.421875 374.230469 1501.753906 368.847656 1520.453125 362.886719 C 1633.625 326.691406 1649.894531 329.980469 1709.007812 331.023438 C 1718.179688 331.167969 1728.933594 329.417969 1736.363281 335.96875 C 1742.269531 341.140625 1739.671875 345.945312 1748 349.65625 C 1776.195312 362.15625 1833.824219 330.03125 1862.6875 328.675781 C 1867.589844 326.34375 1871.335938 323.429688 1876.328125 320.253906 C 1887.457031 313.226562 1906.28125 309.367188 1919.566406 307.941406 C 1934.367188 306.378906 1932.515625 311.8125 1941.800781 319.964844 C 1955.097656 331.578125 1957.101562 329.496094 1968.054688 322.191406 C 1981.839844 312.984375 1992.210938 301.492188 2009.066406 297.003906 C 2038.058594 289.265625 2064.773438 308.449219 2091.753906 315.90625 C 2102.289062 304.332031 2111.363281 297.53125 2126.027344 289.347656 C 2146.054688 278.210938 2152.089844 274.929688 2163.4375 294.402344 C 2174.398438 313.273438 2177.523438 331.6875 2202.992188 327.332031 C 2237.363281 321.480469 2270.40625 302.449219 2302.273438 289.351562 C 2324.21875 280.375 2351.480469 269.003906 2376.140625 274.835938 C 2386.8125 277.367188 2398.148438 289.121094 2409.601562 284.761719 C 2420.480469 280.585938 2421.5 266.285156 2436.421875 267.714844 C 2445.074219 268.566406 2449.292969 274.40625 2453.953125 279.933594 C 2455.335938 286.507812 2459.167969 291.046875 2465.449219 293.527344 C 2476.523438 291.28125 2486.703125 286.855469 2495.96875 280.292969 C 2512.195312 274.875 2522.550781 287.0625 2538.757812 288.046875 C 2554.246094 289.035156 2564.273438 278.746094 2576.71875 270.699219 C 2594.449219 259.226562 2600.210938 257.21875 2612.273438 274.117188 C 2628.976562 297.382812 2627.988281 308.191406 2662.355469 282.390625 C 2670.167969 276.589844 2683.371094 258.519531 2694.375 263.269531 C 2700.460938 265.871094 2701.738281 280.414062 2708.910156 284.296875 C 2721.085938 290.90625 2741.386719 272.292969 2765.9375 288.011719 C 2776.4375 294.734375 2784.167969 313.109375 2795.667969 316.539062 C 2802 318.445312 2810.355469 314.488281 2815.65625 312.003906 C 2881.910156 281.054688 2879.050781 301.183594 2909.78125 290.851562 C 2993.253906 262.78125 2988.003906 287.230469 3013.265625 282.371094 C 3034.972656 278.210938 3054.671875 260.789062 3076.449219 261.328125 C 3098.171875 261.828125 3117.195312 244.859375 3138.679688 239.277344 C 3149.472656 236.484375 3169.925781 230.320312 3179.171875 238.421875 C 3189.960938 247.878906 3185.609375 263.300781 3202.042969 255.53125 C 3216.933594 248.539062 3240.722656 227.222656 3258.699219 232.46875 C 3267.785156 235.078125 3271.90625 260.5625 3284.171875 254.363281 C 3287.101562 240.855469 3291.5625 237.273438 3299.121094 227.132812 C 3306.9375 216.582031 3307.195312 203.4375 3322.652344 206.910156 C 3329.941406 208.582031 3340.386719 216.308594 3348.246094 219.125 C 3366.074219 225.558594 3381.046875 237.1875 3398.835938 243.636719 L 3402.253906 70.351562 C 3375.890625 72.601562 3346.914062 79.621094 3321.96875 87.496094 C 3297.023438 95.367188 3280.386719 109.882812 3258.074219 121.855469 " fill-opacity="1" fill-rule="nonzero"/></g></g></g><g clip-path="url(#4a54abf4ee)"><g clip-path="url(#67ac1c6610)"><g clip-path="url(#d5abed60f7)"><g clip-path="url(#5632d572a5)"><g clip-path="url(#f7173ff1a6)"><path fill="#f5f3ef" d="M 1596.441406 211.777344 L 1583.582031 863.296875 L -172.488281 828.644531 L -159.632812 177.125 Z M 1596.441406 211.777344 " fill-opacity="1" fill-rule="nonzero"/></g></g></g></g></g><g clip-path="url(#240aaebe8c)"><g clip-path="url(#ed986784de)"><g clip-path="url(#c5d09dca7c)"><g clip-path="url(#e89de33ec9)"><g clip-path="url(#bad42b6d11)"><path fill="#f5f3ef" d="M 3052.039062 279.519531 L 3043.582031 708 L 854.300781 664.796875 L 862.757812 236.320312 Z M 3052.039062 279.519531 " fill-opacity="1" fill-rule="nonzero"/></g></g></g></g></g><g clip-path="url(#8272dadb92)"><g clip-path="url(#c22fa9dec2)"><g clip-path="url(#aebb9d2603)"><g clip-path="url(#ef60e9b621)"><g clip-path="url(#e9c6e8eef8)"><path fill="#f5f3ef" d="M 3589.679688 252.476562 L 3581.898438 646.789062 L 2733.210938 630.039062 L 2740.992188 235.726562 Z M 3589.679688 252.476562 " fill-opacity="1" fill-rule="nonzero"/></g></g></g></g></g><g clip-path="url(#0fd1eeaab3)"><g clip-path="url(#3b2b04dc41)"><g clip-path="url(#5dca8034f8)"><g clip-path="url(#38c4e693aa)"><g clip-path="url(#70a78fc768)"><path fill="#f5f3ef" d="M 3514.125 177.421875 L 3506.359375 571.035156 L 2164.078125 544.546875 L 2171.84375 150.9375 Z M 3514.125 177.421875 " fill-opacity="1" fill-rule="nonzero"/></g></g></g></g></g></svg>